<svg width="416" height="371" viewBox="0 0 416 371" fill="none" xmlns="http://www.w3.org/2000/svg">
<path d="M113.103 186.473L127.615 194.86L132.806 191.862C134.17 191.072 136.387 191.072 137.757 191.862L140.028 193.174C141.392 193.964 141.392 195.244 140.028 196.034L134.837 199.032L296.621 292.535L301.807 289.537C303.177 288.747 305.394 288.747 306.758 289.537L309.029 290.849C310.393 291.644 310.398 292.919 309.029 293.714L303.843 296.713L318.35 305.099C321.772 307.073 327.315 307.073 330.725 305.099L413.441 257.11C416.852 255.136 416.852 251.935 413.435 249.961L208.188 131.335C204.766 129.361 199.229 129.361 195.818 131.335L113.103 179.319C109.686 181.293 109.692 184.494 113.108 186.473H113.103Z" fill="#F4F4F4"/>
<path d="M138.962 8.16852L136.505 9.58766C136.505 9.58766 136.489 9.59833 136.484 9.59833C135.37 10.2545 134.688 11.6363 134.688 13.5997V160.518C134.688 164.46 137.459 169.267 140.875 171.241L346.123 289.862C347.812 290.838 349.342 290.934 350.466 290.31L350.504 290.3L352.961 288.88C354.091 288.235 354.789 286.848 354.789 284.868V137.95C354.789 134.008 352.017 129.206 348.596 127.227L143.353 8.59533C141.675 7.62434 140.156 7.52297 139.042 8.13118H139.036L138.983 8.15252C138.978 8.15252 138.967 8.15785 138.962 8.16319V8.16852Z" fill="url(#paint0_linear_0_3840)" stroke="#CCCCCC"/>
<g style="mix-blend-mode:overlay" opacity="0.2">
<path d="M332.837 147.185C330.94 146.086 329.395 146.977 329.395 149.169V213.906C329.395 216.098 330.935 218.771 332.837 219.87L352.317 231.127V158.447L332.837 147.19V147.185Z" fill="black"/>
</g>
<path d="M348.604 127.216L143.356 8.59533C141.677 7.62434 140.158 7.52297 139.044 8.13117H139.039L138.986 8.15252C138.98 8.15252 138.97 8.15785 138.964 8.16319L136.523 9.57699C137.643 8.94745 139.178 9.04348 140.878 10.0251L346.131 128.651C349.552 130.631 352.324 135.432 352.318 139.375V286.293C352.318 288.262 351.631 289.643 350.512 290.294L352.963 288.875C354.093 288.23 354.791 286.842 354.791 284.863V137.945C354.791 134.002 352.02 129.201 348.598 127.221L348.604 127.216Z" fill="url(#paint1_linear_0_3840)" stroke="#CCCCCC"/>
<g style="mix-blend-mode:overlay" opacity="0.2">
<path d="M346.124 284.41L140.876 165.789C138.915 164.652 137.166 164.7 136.031 165.693C137.166 168.008 138.904 170.1 140.876 171.241L346.124 289.862C348.09 290.998 349.838 290.95 350.968 289.958C349.833 287.643 348.101 285.557 346.124 284.415V284.41Z" fill="black"/>
</g>
<path d="M348.884 291.366C347.92 291.366 346.87 291.052 345.793 290.433L140.545 171.812C136.948 169.731 134.022 164.663 134.027 160.512V13.5941C134.027 11.4601 134.773 9.84352 136.133 9.03792C136.143 9.02725 136.159 9.02191 136.17 9.01658C136.17 9.01658 136.175 9.01658 136.181 9.01124L138.632 7.59744C138.632 7.59744 138.643 7.59211 138.648 7.58677L138.701 7.55476C138.744 7.52808 138.792 7.50674 138.84 7.49074C140.194 6.80784 141.91 6.99457 143.69 8.02425L348.938 126.645C352.53 128.72 355.456 133.789 355.461 137.939V284.858C355.456 287.002 354.704 288.619 353.334 289.419C353.318 289.43 353.308 289.435 353.292 289.446L350.878 290.844C350.878 290.844 350.824 290.876 350.798 290.892C350.776 290.902 350.755 290.913 350.728 290.924C350.169 291.222 349.545 291.372 348.884 291.372V291.366ZM136.841 10.1583C136.841 10.1583 136.825 10.169 136.82 10.1743C135.871 10.7291 135.349 11.9456 135.349 13.5994V160.518C135.349 164.247 137.977 168.803 141.206 170.67L346.454 289.291C347.872 290.113 349.183 290.267 350.142 289.734C350.163 289.723 350.185 289.712 350.211 289.702L352.588 288.325C352.588 288.325 352.615 288.304 352.631 288.299C353.59 287.749 354.123 286.533 354.123 284.863V137.945C354.123 134.215 351.49 129.665 348.261 127.797L143.024 9.1713C141.611 8.35503 140.316 8.19497 139.362 8.71248C139.336 8.72848 139.309 8.73915 139.282 8.74982L136.841 10.1583Z" fill="#CCCCCC"/>
<path d="M346.124 275.563L140.877 156.937C139.512 156.148 138.398 154.227 138.398 152.648V15.7436C138.398 14.1644 139.512 13.5242 140.877 14.3138L346.124 132.934C347.489 133.724 348.603 135.65 348.603 137.229V274.139C348.603 275.713 347.494 276.358 346.124 275.569V275.563Z" fill="white" stroke="#CCCCCC"/>
<path d="M332.837 147.185C330.94 146.086 329.395 146.977 329.395 149.169V213.906C329.395 216.098 330.935 218.771 332.837 219.87L348.089 228.895V156.214L332.837 147.185Z" fill="#F4F4F4"/>
<path d="M148.301 181.479L149.542 182.189L153.492 179.906V175.616L148.301 178.615C146.936 179.404 146.936 180.685 148.301 181.479Z" fill="#E9E9E9"/>
<g style="mix-blend-mode:overlay" opacity="0.2">
<path d="M148.301 181.479L149.542 182.189L153.492 179.906V175.616L148.301 178.615C146.936 179.404 146.936 180.685 148.301 181.479Z" fill="black"/>
</g>
<path d="M152.137 186.58C152.564 186.82 153.155 186.782 153.811 186.409L163.09 181.042V175.552L159.759 173.626L150.469 178.993C149.158 179.751 148.098 181.591 148.098 183.106C148.098 183.827 148.343 184.334 148.737 184.595V184.606L152.137 186.574V186.58Z" fill="#A4A4A4"/>
<path d="M152.137 186.58C152.564 186.82 153.155 186.782 153.811 186.409L163.09 181.042V175.552L159.759 173.626L150.469 178.993C149.158 179.751 148.098 181.591 148.098 183.106C148.098 183.827 148.343 184.334 148.737 184.595V184.606L152.137 186.574V186.58Z" fill="#ECECEC"/>
<g style="mix-blend-mode:overlay" opacity="0.5">
<path d="M163.082 175.552L153.797 180.919C152.486 181.682 151.42 183.518 151.426 185.033C151.426 186.548 152.492 187.161 153.803 186.404L163.082 181.037V175.547V175.552Z" fill="black"/>
</g>
<path d="M317.312 279.149L318.548 279.869L322.498 277.586V273.291L317.301 276.289C315.937 277.079 315.942 278.359 317.312 279.149Z" fill="#E9E9E9"/>
<g style="mix-blend-mode:overlay" opacity="0.2">
<path d="M317.312 279.149L318.548 279.869L322.498 277.586V273.291L317.301 276.289C315.937 277.079 315.942 278.359 317.312 279.149Z" fill="black"/>
</g>
<path d="M321.139 284.233C321.565 284.473 322.152 284.436 322.807 284.062L332.086 278.695V273.211L328.755 271.279L319.465 276.646C318.16 277.404 317.094 279.245 317.094 280.76C317.094 281.485 317.344 281.992 317.733 282.254V282.264L321.134 284.228L321.139 284.233Z" fill="#A4A4A4"/>
<path d="M321.139 284.233C321.565 284.473 322.152 284.436 322.807 284.062L332.086 278.695V273.211L328.755 271.279L319.465 276.646C318.16 277.404 317.094 279.245 317.094 280.76C317.094 281.485 317.344 281.992 317.733 282.254V282.264L321.134 284.228L321.139 284.233Z" fill="#DADADA"/>
<path d="M332.091 273.211L322.801 278.578C321.496 279.336 320.43 281.176 320.43 282.691C320.43 284.207 321.496 284.82 322.807 284.063L332.085 278.695V273.211H332.091Z" fill="#CACACA"/>
<path d="M346.758 289.003C346.758 289.003 346.758 288.96 346.758 288.939C346.731 288.795 346.694 288.651 346.652 288.507C346.652 288.491 346.641 288.475 346.636 288.459C346.588 288.315 346.524 288.171 346.454 288.032C346.449 288.016 346.444 288 346.438 287.984C346.369 287.856 346.289 287.728 346.204 287.6C346.188 287.573 346.177 287.546 346.156 287.52C346.065 287.392 345.964 287.269 345.857 287.146C345.836 287.12 345.82 287.093 345.793 287.072C345.394 286.629 344.871 286.218 344.232 285.85L329.719 277.463L324.534 280.461C323.164 281.251 320.947 281.251 319.583 280.461L318.554 279.869L317.318 279.154C315.948 278.365 315.942 277.084 317.307 276.295L318.788 275.441L322.503 273.296L160.718 179.793L155.527 182.792C154.163 183.581 151.946 183.581 150.576 182.792L149.547 182.194L148.306 181.484C146.936 180.69 146.936 179.414 148.306 178.62L149.782 177.766L153.497 175.621L138.984 167.234C135.563 165.26 130.025 165.26 126.614 167.234L3.21836 238.538C3.00517 238.661 2.80798 238.789 2.62144 238.917C1.32635 239.835 0.670815 240.955 0.660156 242.075V242.091C0.660156 242.091 0.660156 242.102 0.660156 242.107V246.317H0.676145C0.644167 247.64 1.48091 248.963 3.22902 249.971L208.471 368.597C211.893 370.571 217.436 370.571 220.847 368.597L344.232 297.288C345.921 296.312 346.769 295.031 346.785 293.751H346.79V293.714V289.424V289.414C346.79 289.275 346.774 289.136 346.753 288.998L346.758 289.003Z" fill="url(#paint2_linear_0_3840)" stroke="#CCCCCC"/>
<path d="M346.762 289.093C346.927 290.496 346.085 291.932 344.23 293.004L220.845 364.318C217.434 366.292 211.892 366.292 208.47 364.318L3.22759 245.687C1.5168 244.7 0.664062 243.403 0.664062 242.112V246.327H0.680051C0.648074 247.65 1.48482 248.973 3.23292 249.982L208.475 368.608C211.897 370.582 217.44 370.582 220.851 368.608L344.236 297.299C345.925 296.322 346.773 295.042 346.789 293.761H346.794V293.724V289.435V289.424C346.794 289.317 346.778 289.205 346.767 289.099L346.762 289.093Z" fill="#D9D9D9" stroke="#CCCCCC"/>
<path d="M214.665 370.737C212.304 370.737 209.943 370.219 208.142 369.179L2.89929 250.553C1.05526 249.491 0.0373071 248.04 0.0159888 246.456C0.00532959 246.413 0 246.37 0 246.328V242.118C0 242.118 0 242.076 0 242.054C0.0213183 240.694 0.815427 239.387 2.23843 238.378C2.44095 238.234 2.65946 238.096 2.88864 237.962L126.274 166.653C129.861 164.578 135.707 164.578 139.31 166.653L153.823 175.04C154.025 175.157 154.153 175.376 154.153 175.616C154.153 175.856 154.025 176.07 153.823 176.192L148.632 179.191C148.189 179.447 147.939 179.756 147.939 180.044C147.939 180.332 148.194 180.647 148.632 180.903L150.897 182.21C152.058 182.888 154.025 182.888 155.187 182.21L160.378 179.212C160.58 179.095 160.836 179.095 161.039 179.212L322.824 272.715C323.026 272.832 323.154 273.051 323.154 273.291C323.154 273.531 323.026 273.745 322.824 273.867L317.627 276.866C317.19 277.117 316.94 277.431 316.94 277.719C316.94 278.007 317.196 278.322 317.638 278.578L318.821 279.267C318.821 279.267 318.858 279.283 318.874 279.293L319.903 279.885C321.06 280.563 323.026 280.563 324.193 279.885L329.379 276.887C329.582 276.77 329.837 276.77 330.04 276.887L344.552 285.274C345.24 285.669 345.816 286.128 346.269 286.624C346.295 286.65 346.322 286.688 346.354 286.725C346.46 286.848 346.583 286.992 346.684 287.136C346.716 287.184 346.732 287.216 346.754 287.248C346.839 287.376 346.935 287.525 347.015 287.675C347.025 287.696 347.041 287.733 347.052 287.76C347.132 287.925 347.201 288.086 347.255 288.24C347.255 288.256 347.271 288.294 347.276 288.31C347.329 288.47 347.372 288.64 347.404 288.811C347.404 288.832 347.414 288.886 347.414 288.912C347.436 289.046 347.457 289.217 347.457 289.403V293.703C347.457 293.746 347.457 293.783 347.446 293.821C347.398 295.379 346.375 296.808 344.563 297.854L221.178 369.163C219.382 370.198 217.026 370.721 214.665 370.721V370.737ZM1.32707 246.194C1.33773 246.242 1.34306 246.29 1.34306 246.344C1.31641 247.475 2.09986 248.563 3.56549 249.406L208.808 368.032C212.043 369.899 217.293 369.899 220.522 368.032L343.908 296.723C345.325 295.907 346.114 294.85 346.13 293.751C346.13 293.719 346.13 293.687 346.135 293.655V289.43C346.135 289.313 346.125 289.211 346.109 289.105C346.109 289.105 346.109 289.094 346.109 289.089C346.109 289.073 346.109 289.03 346.103 289.019C346.087 288.95 346.061 288.832 346.023 288.715C346.023 288.704 346.007 288.667 346.007 288.651C345.975 288.56 345.922 288.443 345.869 288.331C345.858 288.315 345.848 288.288 345.842 288.267C345.789 288.171 345.725 288.075 345.661 287.979C345.65 287.963 345.629 287.931 345.624 287.915C345.549 287.803 345.458 287.696 345.368 287.595C345.357 287.584 345.336 287.552 345.325 287.541C344.952 287.131 344.478 286.762 343.913 286.432L329.736 278.237L324.881 281.043C323.298 281.956 320.83 281.956 319.264 281.043L318.288 280.483C318.288 280.483 318.251 280.462 318.23 280.451L316.993 279.731C316.13 279.235 315.634 278.504 315.634 277.725C315.634 276.951 316.124 276.22 316.988 275.724L321.188 273.297L160.724 180.556L155.864 183.363C154.292 184.275 151.824 184.27 150.252 183.363L147.987 182.056C147.113 181.549 146.628 180.834 146.628 180.05C146.628 179.265 147.107 178.55 147.981 178.049L152.181 175.622L138.665 167.806C135.43 165.938 130.18 165.938 126.956 167.806L3.5495 239.109C3.35764 239.221 3.17643 239.333 3.00589 239.456C1.92931 240.219 1.3324 241.147 1.32174 242.081C1.32174 242.097 1.32174 242.113 1.32174 242.124C1.32174 242.124 1.32174 242.129 1.32174 242.134V246.189L1.32707 246.194Z" fill="#CCCCCC"/>
<g style="mix-blend-mode:overlay" opacity="0.3">
<path d="M263.371 329.209C261.319 330.393 257.999 330.393 255.947 329.209L63.9647 218.249C61.9128 217.065 61.9128 215.139 63.9647 213.96L125.793 178.225C127.845 177.041 131.171 177.041 133.217 178.225L325.2 289.179C327.246 290.364 327.257 292.284 325.205 293.469L263.371 329.203V329.209Z" fill="black"/>
</g>
<path d="M84.1831 222.682C82.8134 223.472 80.6016 223.472 79.2319 222.682L70.1503 217.432C68.7859 216.643 68.7806 215.357 70.1503 214.573L76.743 210.758C78.1074 209.968 80.3245 209.968 81.6942 210.758L90.7758 216.002C92.1402 216.792 92.1455 218.072 90.7758 218.862L84.1831 222.671V222.682ZM118.825 218.878C120.195 218.094 120.19 216.808 118.825 216.018L95.7163 202.665C94.3466 201.87 92.1295 201.875 90.7651 202.665L84.1724 206.474C82.808 207.264 82.808 208.544 84.1724 209.334L107.281 222.693C108.651 223.482 110.868 223.482 112.233 222.693L118.825 218.878ZM104.809 226.982C106.173 226.192 106.173 224.907 104.809 224.122L98.2052 220.308C96.8408 219.518 94.6237 219.513 93.254 220.308L86.656 224.117C85.2916 224.907 85.2916 226.187 86.656 226.977L93.2647 230.797C94.6291 231.586 96.8462 231.592 98.2159 230.797L104.809 226.987V226.982ZM118.841 235.091C120.206 234.302 120.206 233.021 118.841 232.232L112.238 228.417C110.868 227.628 108.657 227.622 107.287 228.417L100.689 232.226C99.3244 233.016 99.3298 234.297 100.689 235.086L107.292 238.901C108.657 239.69 110.874 239.696 112.243 238.901L118.836 235.086L118.841 235.091ZM132.88 243.201C134.244 242.411 134.244 241.131 132.88 240.341L126.276 236.521C124.906 235.732 122.695 235.732 121.325 236.521L114.732 240.331C113.368 241.12 113.368 242.401 114.732 243.19L121.336 247.01C122.7 247.8 124.917 247.805 126.281 247.01L132.88 243.195V243.201ZM226.632 297.384C227.997 296.595 227.997 295.314 226.632 294.525L210.468 285.183C209.098 284.388 206.886 284.388 205.522 285.183L198.924 288.992C197.559 289.782 197.559 291.062 198.924 291.852L215.088 301.193C216.453 301.983 218.67 301.983 220.034 301.193L226.627 297.384H226.632ZM254.676 297.395C256.041 296.605 256.041 295.325 254.676 294.535L238.512 285.193C237.142 284.404 234.93 284.404 233.561 285.193L226.968 289.008C225.604 289.798 225.604 291.078 226.968 291.868L243.133 301.209C244.497 301.999 246.714 301.999 248.084 301.209L254.676 297.395ZM203.038 283.753C204.403 282.958 204.403 281.683 203.033 280.893L196.435 277.079C195.065 276.284 192.848 276.289 191.484 277.079L184.891 280.893C183.527 281.683 183.527 282.963 184.891 283.753L191.489 287.568C192.859 288.357 195.076 288.357 196.44 287.568L203.033 283.758L203.038 283.753ZM189.005 275.638C190.375 274.854 190.37 273.574 189.005 272.784L140.304 244.636C138.939 243.846 136.722 243.846 135.352 244.631L128.76 248.445C127.395 249.229 127.395 250.515 128.76 251.305L177.456 279.448C178.826 280.237 181.043 280.237 182.407 279.448L189 275.633L189.005 275.638ZM150.627 195.329C151.997 194.539 151.991 193.259 150.627 192.475L131.984 181.698C130.614 180.908 128.403 180.903 127.033 181.698L126.212 182.173C124.842 182.962 124.848 184.243 126.212 185.032L144.85 195.809C146.214 196.599 148.431 196.604 149.796 195.809L150.616 195.329H150.627ZM164.66 203.444C166.03 202.654 166.024 201.374 164.66 200.584L158.056 196.764C156.692 195.974 154.475 195.974 153.111 196.764L152.285 197.239C150.92 198.034 150.925 199.314 152.285 200.098L158.888 203.918C160.252 204.708 162.469 204.713 163.839 203.918L164.66 203.444ZM178.693 211.553C180.057 210.763 180.057 209.483 178.693 208.693L172.089 204.879C170.725 204.084 168.508 204.084 167.143 204.879L166.317 205.354C164.953 206.143 164.958 207.424 166.317 208.213L172.921 212.033C174.285 212.823 176.502 212.828 177.872 212.033L178.693 211.558V211.553ZM192.725 219.662C194.095 218.873 194.09 217.592 192.725 216.803L186.127 212.988C184.752 212.193 182.541 212.199 181.176 212.988L180.35 213.463C178.98 214.253 178.986 215.533 180.35 216.323L186.953 220.142C188.318 220.932 190.535 220.932 191.899 220.142L192.72 219.668L192.725 219.662ZM206.758 227.777C208.123 226.982 208.123 225.702 206.758 224.912L200.155 221.092C198.79 220.303 196.579 220.303 195.204 221.092L194.378 221.567C193.013 222.357 193.013 223.637 194.378 224.427L200.981 228.241C202.345 229.031 204.562 229.036 205.932 228.241L206.753 227.766L206.758 227.777ZM220.791 235.881C222.155 235.091 222.155 233.811 220.791 233.021L214.188 229.207C212.823 228.412 210.606 228.417 209.236 229.207L208.416 229.687C207.051 230.477 207.051 231.757 208.416 232.547L215.019 236.361C216.389 237.151 218.601 237.151 219.97 236.361L220.791 235.886V235.881ZM234.824 243.996C236.188 243.206 236.188 241.926 234.824 241.131L228.226 237.316C226.856 236.527 224.639 236.527 223.275 237.316L222.454 237.796C221.089 238.586 221.089 239.866 222.454 240.656L229.057 244.476C230.422 245.265 232.633 245.265 234.008 244.476L234.829 244.001L234.824 243.996ZM248.857 252.105C250.221 251.316 250.221 250.035 248.857 249.245L242.253 245.431C240.889 244.636 238.672 244.641 237.302 245.431L236.481 245.906C235.117 246.695 235.117 247.976 236.492 248.765L243.09 252.58C244.454 253.37 246.671 253.37 248.036 252.58L248.862 252.105H248.857ZM262.889 260.214C264.254 259.425 264.248 258.139 262.889 257.355L256.286 253.54C254.916 252.745 252.705 252.745 251.335 253.54L250.514 254.015C249.144 254.805 249.15 256.085 250.514 256.875L257.112 260.695C258.482 261.484 260.699 261.49 262.063 260.695L262.884 260.22L262.889 260.214ZM276.922 268.324C278.287 267.534 278.287 266.254 276.922 265.464L270.324 261.644C268.954 260.855 266.737 260.855 265.373 261.644L264.547 262.119C263.183 262.909 263.183 264.189 264.552 264.979L271.15 268.799C272.52 269.588 274.732 269.588 276.101 268.799L276.922 268.324ZM290.955 276.433C292.319 275.644 292.319 274.363 290.955 273.574L284.352 269.754C282.982 268.964 280.765 268.964 279.4 269.754L278.58 270.234C277.21 271.023 277.215 272.304 278.58 273.093L285.183 276.913C286.547 277.703 288.765 277.703 290.129 276.913L290.955 276.439V276.433ZM304.988 284.543C306.352 283.753 306.352 282.467 304.988 281.683L298.384 277.863C297.02 277.073 294.803 277.073 293.428 277.863L292.613 278.343C291.248 279.133 291.248 280.413 292.613 281.203L299.216 285.017C300.58 285.807 302.803 285.807 304.167 285.017L304.993 284.543H304.988ZM319.021 292.652C320.385 291.862 320.38 290.582 319.021 289.787L312.423 285.972C311.058 285.183 308.841 285.177 307.471 285.972L306.651 286.447C305.281 287.237 305.286 288.517 306.651 289.307L313.254 293.121C314.624 293.911 316.835 293.911 318.205 293.121L319.031 292.641L319.021 292.652ZM132.858 226.987C134.228 226.198 134.223 224.917 132.858 224.128L126.255 220.313C124.885 219.524 122.673 219.518 121.304 220.313L114.711 224.128C113.347 224.917 113.347 226.198 114.711 226.987L121.314 230.802C122.679 231.592 124.896 231.592 126.265 230.802L132.858 226.993V226.987ZM146.891 235.102C148.255 234.313 148.255 233.032 146.891 232.243L140.288 228.428C138.918 227.638 136.706 227.638 135.336 228.428L128.744 232.237C127.379 233.027 127.379 234.307 128.744 235.102L135.347 238.917C136.717 239.706 138.929 239.706 140.298 238.917L146.891 235.107V235.102ZM160.924 243.211C162.288 242.417 162.288 241.136 160.924 240.352L154.32 236.532C152.956 235.742 150.739 235.742 149.369 236.532L142.777 240.341C141.407 241.131 141.407 242.406 142.777 243.201L149.38 247.015C150.75 247.805 152.967 247.805 154.331 247.015L160.929 243.206L160.924 243.211ZM174.957 251.321C176.321 250.531 176.321 249.251 174.957 248.461L168.353 244.647C166.989 243.852 164.772 243.852 163.402 244.647L156.809 248.456C155.445 249.245 155.445 250.531 156.809 251.321L163.413 255.135C164.777 255.925 166.994 255.925 168.364 255.135L174.957 251.326V251.321ZM188.984 259.43C190.354 258.641 190.348 257.36 188.984 256.571L182.381 252.751C181.016 251.961 178.799 251.961 177.435 252.751L170.842 256.565C169.472 257.355 169.472 258.635 170.842 259.425L177.445 263.245C178.815 264.029 181.027 264.034 182.397 263.245L188.989 259.436L188.984 259.43ZM203.022 267.54C204.392 266.75 204.387 265.464 203.022 264.68L196.419 260.86C195.054 260.07 192.837 260.07 191.468 260.86L184.87 264.675C183.505 265.464 183.505 266.745 184.87 267.534L191.473 271.349C192.843 272.138 195.06 272.144 196.424 271.354L203.017 267.54H203.022ZM217.055 275.649C218.425 274.859 218.414 273.579 217.055 272.789L210.452 268.975C209.082 268.18 206.865 268.18 205.5 268.975L198.908 272.784C197.543 273.574 197.543 274.849 198.908 275.638L205.511 279.458C206.875 280.248 209.093 280.248 210.462 279.458L217.055 275.649ZM231.088 283.758C232.457 282.969 232.452 281.688 231.088 280.893L224.484 277.079C223.12 276.289 220.903 276.289 219.539 277.079L212.946 280.888C211.576 281.683 211.581 282.958 212.946 283.753L219.549 287.568C220.914 288.357 223.131 288.362 224.5 287.568L231.093 283.753L231.088 283.758ZM168.748 231.533C170.112 230.749 170.112 229.463 168.748 228.673L162.144 224.859C160.78 224.069 158.563 224.069 157.193 224.859L150.6 228.668C149.236 229.458 149.231 230.738 150.6 231.533L157.204 235.348C158.573 236.137 160.791 236.137 162.155 235.348L168.753 231.533H168.748ZM182.78 239.642C184.145 238.853 184.145 237.572 182.775 236.783L176.177 232.963C174.813 232.173 172.596 232.173 171.231 232.963L164.638 236.772C163.274 237.562 163.269 238.842 164.638 239.637L171.242 243.452C172.606 244.241 174.823 244.241 176.193 243.452L182.786 239.637L182.78 239.642ZM196.813 247.752C198.178 246.962 198.178 245.682 196.813 244.897L190.21 241.077C188.84 240.288 186.628 240.288 185.259 241.077L178.666 244.887C177.302 245.676 177.302 246.962 178.666 247.752L185.269 251.566C186.634 252.356 188.851 252.356 190.221 251.566L196.813 247.752ZM210.846 255.861C212.216 255.071 212.21 253.791 210.846 253.001L204.237 249.181C202.873 248.392 200.656 248.392 199.291 249.181L192.699 252.991C191.334 253.786 191.334 255.061 192.699 255.856L199.302 259.676C200.667 260.46 202.884 260.465 204.248 259.676L210.846 255.866V255.861ZM224.879 263.97C226.243 263.181 226.238 261.9 224.879 261.111L218.275 257.296C216.906 256.507 214.694 256.501 213.324 257.296L206.732 261.105C205.367 261.895 205.367 263.175 206.732 263.965L213.335 267.78C214.694 268.569 216.916 268.575 218.286 267.78L224.879 263.965V263.97ZM238.912 272.08C240.276 271.29 240.271 270.01 238.912 269.22L232.308 265.406C230.939 264.616 228.732 264.611 227.362 265.406L220.77 269.215C219.405 270.004 219.405 271.285 220.77 272.08L227.373 275.9C228.737 276.689 230.955 276.689 232.319 275.9L238.917 272.085L238.912 272.08ZM252.944 280.189C254.309 279.399 254.309 278.119 252.944 277.329L246.341 273.515C244.977 272.72 242.76 272.725 241.39 273.51L234.792 277.324C233.427 278.114 233.427 279.394 234.797 280.184L241.395 284.004C242.76 284.793 244.982 284.793 246.346 284.004L252.939 280.189H252.944ZM266.977 288.298C268.342 287.509 268.336 286.228 266.977 285.439L260.374 281.624C259.009 280.835 256.792 280.835 255.423 281.624L248.83 285.439C247.466 286.228 247.466 287.509 248.83 288.298L255.433 292.113C256.798 292.903 259.02 292.908 260.384 292.113L266.983 288.298H266.977ZM296.759 305.515C298.123 304.725 298.118 303.445 296.759 302.655L274.401 289.734C273.032 288.944 270.82 288.944 269.455 289.734L262.857 293.548C261.493 294.332 261.493 295.618 262.857 296.408L285.215 309.329C286.579 310.119 288.797 310.119 290.166 309.329L296.759 305.515ZM282.742 313.614C284.112 312.824 284.106 311.544 282.742 310.754L276.139 306.934C274.774 306.144 272.557 306.144 271.193 306.934L264.6 310.743C263.236 311.533 263.23 312.813 264.6 313.603L271.204 317.417C272.568 318.207 274.79 318.212 276.155 317.417L282.747 313.608L282.742 313.614ZM268.731 321.718C270.095 320.928 270.09 319.648 268.731 318.858L262.127 315.043C260.758 314.254 258.546 314.248 257.181 315.043L250.583 318.853C249.224 319.642 249.224 320.923 250.583 321.712L257.192 325.527C258.556 326.316 260.768 326.316 262.138 325.527L268.731 321.718ZM254.698 313.603C256.062 312.813 256.057 311.533 254.698 310.738L248.094 306.923C246.725 306.134 244.508 306.134 243.149 306.923L236.551 310.738C235.186 311.528 235.186 312.808 236.551 313.598L243.154 317.417C244.518 318.207 246.735 318.212 248.105 317.417L254.698 313.608V313.603ZM268.715 305.504C270.079 304.715 270.074 303.429 268.715 302.645L262.111 298.825C260.742 298.035 258.53 298.035 257.155 298.825L250.562 302.634C249.198 303.423 249.192 304.704 250.562 305.493L257.165 309.313C258.53 310.103 260.747 310.108 262.117 309.313L268.709 305.504H268.715ZM240.665 305.493C242.029 304.704 242.024 303.423 240.665 302.634L234.056 298.819C232.692 298.03 230.475 298.03 229.11 298.819L222.512 302.629C221.148 303.418 221.148 304.699 222.512 305.488L229.116 309.303C230.48 310.092 232.703 310.092 234.067 309.303L240.66 305.493H240.665ZM126.649 207.2C128.019 206.41 128.014 205.13 126.649 204.34L109.728 194.561C108.363 193.771 106.146 193.766 104.782 194.561L98.1839 198.37C96.8195 199.16 96.8142 200.44 98.1839 201.23L115.105 211.014C116.47 211.804 118.692 211.804 120.057 211.014L126.649 207.2ZM140.682 215.309C142.046 214.519 142.046 213.239 140.682 212.449L134.079 208.635C132.714 207.845 130.497 207.845 129.133 208.635L122.54 212.449C121.176 213.239 121.176 214.519 122.54 215.309L129.143 219.123C130.508 219.913 132.73 219.913 134.095 219.123L140.687 215.309H140.682ZM154.715 223.424C156.085 222.634 156.079 221.354 154.715 220.564L148.111 216.749C146.742 215.96 144.53 215.96 143.16 216.749L136.568 220.559C135.203 221.348 135.203 222.629 136.568 223.418L143.171 227.233C144.535 228.028 146.758 228.028 148.122 227.233L154.715 223.424ZM204.637 236.073C206.007 235.278 206.001 233.998 204.637 233.213L198.034 229.399C196.669 228.604 194.452 228.604 193.088 229.399L186.49 233.213C185.125 234.008 185.131 235.284 186.5 236.073L193.104 239.893C194.468 240.683 196.685 240.688 198.05 239.893L204.642 236.084L204.637 236.073ZM218.67 244.188C220.04 243.393 220.034 242.112 218.67 241.328L212.066 237.508C210.702 236.719 208.485 236.719 207.121 237.508L200.523 241.323C199.153 242.112 199.158 243.393 200.523 244.182L207.121 247.997C208.49 248.787 210.707 248.792 212.072 247.997L218.664 244.188H218.67ZM232.703 252.292C234.067 251.508 234.067 250.222 232.703 249.432L226.099 245.618C224.735 244.828 222.518 244.828 221.153 245.618L214.561 249.427C213.196 250.216 213.196 251.492 214.561 252.286L221.164 256.106C222.528 256.891 224.746 256.896 226.11 256.106L232.708 252.292H232.703ZM246.735 260.407C248.105 259.617 248.1 258.337 246.735 257.547L240.132 253.732C238.762 252.943 236.551 252.943 235.186 253.732L228.594 257.547C227.224 258.337 227.229 259.612 228.594 260.407L235.197 264.226C236.561 265.016 238.778 265.016 240.148 264.226L246.741 260.417L246.735 260.407ZM260.768 268.516C262.138 267.726 262.133 266.446 260.768 265.651L254.165 261.831C252.8 261.047 250.583 261.047 249.219 261.831L242.621 265.646C241.257 266.435 241.257 267.716 242.621 268.505L249.219 272.32C250.589 273.109 252.806 273.109 254.17 272.32L260.763 268.511L260.768 268.516ZM274.801 276.625C276.165 275.836 276.165 274.555 274.801 273.766L268.203 269.951C266.833 269.161 264.616 269.156 263.252 269.951L256.654 273.766C255.295 274.55 255.295 275.83 256.664 276.625L263.262 280.44C264.632 281.229 266.849 281.235 268.214 280.445L274.806 276.631L274.801 276.625ZM288.834 284.735C290.198 283.95 290.198 282.665 288.834 281.875L282.236 278.06C280.866 277.265 278.649 277.265 277.285 278.06L270.692 281.87C269.328 282.665 269.333 283.94 270.692 284.729L277.295 288.549C278.665 289.339 280.882 289.344 282.241 288.549L288.839 284.735H288.834ZM310.776 297.416C312.135 296.627 312.135 295.341 310.77 294.551L296.258 286.164C294.888 285.375 292.676 285.369 291.307 286.164L284.709 289.979C283.344 290.769 283.35 292.049 284.709 292.833L299.227 301.225C300.591 302.015 302.808 302.015 304.172 301.225L310.77 297.416H310.776ZM176.571 219.854C177.936 219.065 177.93 217.784 176.571 216.995L169.968 213.18C168.604 212.391 166.381 212.391 165.017 213.18L158.424 216.989C157.06 217.779 157.06 219.059 158.424 219.849L165.028 223.664C166.397 224.459 168.609 224.459 169.979 223.664L176.577 219.854H176.571ZM190.604 227.964C191.974 227.174 191.969 225.894 190.604 225.099L184.001 221.284C182.636 220.495 180.419 220.495 179.055 221.284L172.457 225.099C171.093 225.883 171.098 227.169 172.457 227.953L179.06 231.773C180.425 232.563 182.642 232.563 184.012 231.773L190.604 227.964ZM134.478 195.526C135.843 194.737 135.843 193.451 134.478 192.667L123.75 186.467C122.38 185.678 120.168 185.678 118.799 186.467L112.206 190.282C110.842 191.071 110.842 192.352 112.206 193.142L122.934 199.341C124.299 200.131 126.516 200.131 127.88 199.341L134.478 195.532V195.526ZM148.511 203.636C149.876 202.841 149.876 201.566 148.511 200.776L141.908 196.961C140.538 196.172 138.326 196.167 136.957 196.961L130.364 200.771C129 201.56 129 202.841 130.364 203.63L136.967 207.445C138.332 208.235 140.554 208.235 141.918 207.445L148.517 203.636H148.511ZM162.539 211.745C163.903 210.955 163.903 209.675 162.539 208.885L155.93 205.071C154.566 204.281 152.348 204.276 150.984 205.071L144.391 208.88C143.027 209.67 143.027 210.95 144.391 211.74L150.995 215.554C152.359 216.344 154.576 216.349 155.941 215.554L162.539 211.745Z" fill="#F1F1F1"/>
<g style="mix-blend-mode:overlay" opacity="0.2">
<path d="M149.414 316.831C147.367 318.021 144.042 318.015 141.99 316.831L85.3788 284.111C83.3269 282.926 83.3269 281.006 85.3788 279.821L121.337 259.036C123.389 257.851 126.715 257.857 128.762 259.036L185.372 291.751C187.43 292.94 187.43 294.861 185.383 296.045L149.414 316.831Z" fill="black"/>
</g>
<g style="mix-blend-mode:overlay" opacity="0.2">
<path d="M85.3748 281.251L121.339 260.465C123.391 259.281 126.716 259.286 128.763 260.465L185.374 293.185C186.083 293.596 186.53 294.092 186.749 294.62C187.165 293.623 186.722 292.534 185.374 291.756L128.763 259.041C126.711 257.856 123.391 257.851 121.339 259.041L85.3802 279.826C84.0371 280.605 83.5894 281.694 84.0051 282.686C84.2237 282.163 84.6713 281.667 85.3748 281.261V281.251Z" fill="black"/>
</g>
<path d="M329.374 303.547C329.374 304.091 328.99 304.747 328.521 305.019L316.753 311.822C316.284 312.094 315.9 311.875 315.9 311.336C315.9 310.787 316.284 310.125 316.753 309.853L328.516 303.061C328.985 302.789 329.379 303.008 329.379 303.547H329.374ZM333.035 300.447C332.566 300.719 332.182 301.381 332.182 301.925C332.177 302.469 332.561 302.688 333.03 302.416C333.499 302.149 333.882 301.482 333.877 300.943C333.877 300.399 333.499 300.186 333.035 300.447ZM336.142 298.655C335.673 298.927 335.295 299.583 335.295 300.127C335.295 300.671 335.668 300.89 336.147 300.618C336.611 300.351 336.995 299.69 336.995 299.151C336.995 298.606 336.617 298.388 336.142 298.655ZM245.619 351.952C245.619 352.491 245.23 353.153 244.766 353.425L232.999 360.227C232.53 360.499 232.146 360.28 232.141 359.741C232.141 359.197 232.53 358.536 232.999 358.264L244.761 351.467C245.23 351.195 245.619 351.408 245.619 351.952Z" fill="#F0F0F0"/>
<g style="mix-blend-mode:overlay" opacity="0.3">
<path d="M171.232 31.8558V27.5664L305.91 105.406V109.695L171.232 31.8558ZM303.155 250.729C298.598 269.487 287.038 278.231 259.133 294.359L182.371 338.304L49.2323 261.356L48.4648 260.028L97.3691 231.762C120.953 218.131 141.972 193.141 155.504 165.394L303.15 250.729H303.155Z" fill="black"/>
</g>
<path d="M305.914 109.689L171.23 31.8555V103.794C171.23 123.587 165.341 145.216 155.508 165.388L303.153 250.723C305.317 241.813 305.909 230.658 305.909 215.362V109.689H305.914Z" fill="#F4F4F4"/>
<path d="M216.559 305.643C257.719 281.854 291.194 223.856 291.184 176.347L291.194 77.6099L158.056 0.666992H156.521V99.4038C156.521 146.422 123.387 203.828 82.6582 227.372L33.7539 255.637L34.5214 256.965L167.66 333.914L216.564 305.648L216.559 305.643Z" fill="white"/>
<path d="M167.658 334.57C167.546 334.57 167.428 334.538 167.327 334.479L34.1887 257.531C34.0874 257.472 34.0021 257.387 33.9489 257.291L33.1814 255.962C33.0961 255.808 33.0695 255.632 33.1174 255.461C33.1654 255.29 33.272 255.146 33.4266 255.061L82.3308 226.795C122.873 203.358 155.863 146.214 155.863 99.4037V0.661553C155.863 0.485495 155.932 0.314771 156.055 0.192064C156.178 0.0693564 156.348 0 156.524 0H158.059C158.176 0 158.288 0.0320106 158.389 0.0906968L291.528 77.0389C291.73 77.1563 291.858 77.375 291.858 77.6151L291.848 176.352C291.858 224.069 258.234 282.328 216.887 306.224L167.983 334.49C167.881 334.548 167.764 334.58 167.652 334.58L167.658 334.57ZM35.0041 256.475L167.658 333.145L216.231 305.072C257.211 281.389 290.536 223.648 290.526 176.347L290.536 77.9939L157.878 1.32844H157.18V99.3983C157.18 146.63 123.891 204.292 82.9864 227.937L34.6577 255.866L35.0041 256.469V256.475Z" fill="#CCCCCC"/>
<path d="M164.713 119.693C164.803 119.154 164.899 118.616 164.984 118.077L217.156 148.188C217.103 148.748 217.049 149.303 216.98 149.869L164.713 119.699V119.693ZM228.465 122.638V124.415L266.348 146.267V144.491L228.465 122.638ZM211.048 128.838L166.434 103.09C166.413 103.667 166.392 104.248 166.365 104.83L211.053 130.614V128.838H211.048ZM204.391 116.86L166.509 95.0078V96.7844L204.391 118.637V116.86ZM228.465 130.764V132.546L259.691 150.552V148.775L228.465 130.769V130.764ZM217.705 116.428L166.509 86.8824V88.659L217.705 118.205V116.428ZM190.087 218.745C190.375 218.318 190.662 217.897 190.95 217.464L137.532 186.617C137.249 187.049 136.951 187.465 136.668 187.897L190.092 218.745H190.087ZM181.373 203.919C181.639 203.476 181.901 203.033 182.162 202.595L142.014 179.42C141.747 179.863 141.492 180.305 141.225 180.743L181.373 203.924V203.919ZM166.487 260.455L198.646 279.026C199.105 278.701 199.558 278.37 200.011 278.034L167.772 259.414C167.346 259.766 166.914 260.108 166.487 260.455ZM176.848 179.943L150.051 164.481C149.827 164.946 149.598 165.404 149.374 165.869L176.171 181.324C176.395 180.86 176.63 180.401 176.848 179.937V179.943ZM173.672 254.266C173.272 254.634 172.872 254.992 172.473 255.349L218.307 281.822C218.723 281.475 219.133 281.118 219.549 280.765L173.672 254.266ZM121.378 207.765L154.491 226.886C154.848 226.507 155.194 226.113 155.551 225.723L122.406 206.586C122.06 206.981 121.719 207.376 121.372 207.765H121.378ZM132.735 193.558C132.437 193.974 132.138 194.401 131.84 194.817L178.522 221.775C178.831 221.359 179.151 220.954 179.46 220.537L132.741 193.558H132.735ZM221.883 245.031L195.358 229.725C195.059 230.141 194.761 230.562 194.452 230.973L220.95 246.263C221.26 245.853 221.579 245.442 221.883 245.026V245.031ZM200.165 222.784C199.883 223.216 199.59 223.637 199.302 224.064L239.183 247.09C239.465 246.663 239.753 246.242 240.041 245.81L200.165 222.784ZM204.658 215.597C204.397 216.04 204.136 216.477 203.869 216.915L257.09 247.65C257.357 247.213 257.618 246.77 257.879 246.327L204.658 215.592V215.597ZM127.693 200.227C127.368 200.632 127.043 201.032 126.718 201.443L179.971 232.195C180.302 231.795 180.632 231.394 180.963 230.989L127.693 200.227ZM183.91 243.884L236.833 274.454C237.195 274.07 237.547 273.68 237.904 273.296L184.965 242.721C184.619 243.116 184.262 243.494 183.905 243.884H183.91ZM179.412 248.685C179.044 249.064 178.682 249.454 178.308 249.827L217.731 272.592C218.115 272.229 218.494 271.845 218.877 271.472L179.412 248.685ZM165.938 110.538C165.88 111.098 165.827 111.653 165.763 112.213L190.988 126.757C191.014 126.165 191.009 125.589 191.025 125.002L165.938 110.544V110.538ZM134.595 280.509L133.06 281.4L184.256 310.983L185.797 310.098L134.595 280.509ZM206.278 189.039C206.481 188.564 206.683 188.089 206.88 187.609L153.547 156.82C153.345 157.295 153.147 157.77 152.945 158.245L206.278 189.044V189.039ZM116.8 278.354L65.5984 248.766L64.0635 249.656L115.265 279.245L116.8 278.354ZM141.63 276.444L140.09 277.335L177.978 299.225L179.513 298.339L141.625 276.449L141.63 276.444ZM148.66 272.384L147.125 273.27L191.675 299.006L193.215 298.121L148.665 272.384H148.66ZM228.465 114.508V116.284L253.035 130.444V128.667L228.465 114.513V114.508ZM158.792 302.618L127.565 284.575L126.031 285.466L157.257 303.509L158.792 302.618ZM171.732 318.223L120.536 288.635L118.995 289.526L170.197 319.109L171.732 318.218V318.223ZM96.4567 274.721L58.574 252.831L57.0391 253.716L94.9218 275.612L96.4567 274.721ZM190.279 236.377C189.954 236.783 189.629 237.188 189.303 237.588L235.697 264.381C236.033 263.981 236.374 263.592 236.705 263.186L190.279 236.377ZM154.075 269.188L205.335 298.803L206.875 297.912L155.578 268.276C155.082 268.591 154.576 268.879 154.08 269.188H154.075ZM228.465 65.7394V67.516L273.005 93.2098V91.4332L228.465 65.7447V65.7394ZM228.465 73.8647V75.6413L266.348 97.4832V95.7067L228.465 73.8647ZM228.465 81.9954V83.772L279.661 113.313V111.536L228.465 81.9954ZM202.505 149.981C202.601 149.442 202.702 148.908 202.787 148.375L163.551 125.727C163.439 126.255 163.327 126.778 163.21 127.306L202.505 149.981ZM228.465 106.377V108.153L279.661 137.699V135.923L228.465 106.377ZM228.471 90.1261V91.9027L273.01 117.597V115.815L228.471 90.1208V90.1261ZM205.329 169.571C205.484 169.064 205.628 168.558 205.777 168.051L159.383 141.268C159.223 141.765 159.069 142.266 158.903 142.768L205.329 169.571ZM228.465 59.3853L279.661 88.9204V87.1438L228.465 57.6087V59.3853ZM196.562 172.089L156.67 149.068C156.489 149.554 156.297 150.034 156.111 150.52L196.045 173.567C196.221 173.076 196.392 172.586 196.568 172.095L196.562 172.089ZM211.725 63.52V64.4109C210.989 63.9841 210.393 63.7921 209.94 63.8294C209.487 63.8721 209.049 64.1869 208.634 64.7791C208.351 65.1792 207.92 66.2622 207.323 68.0228L199.478 89.678L198.646 89.2032L192.235 64.7204L185.86 81.8194L185.114 81.3819L176.752 49.5633C176.129 47.1946 175.734 45.7754 175.564 45.3113C175.287 44.543 174.914 43.8761 174.434 43.3053C173.954 42.7344 173.309 42.2116 172.489 41.7421V40.8564L182.913 46.8798V47.7654L182.412 47.4773C181.677 47.0505 181.122 46.9225 180.733 47.0772C180.344 47.2372 180.152 47.5893 180.152 48.1335C180.152 48.6777 180.456 50.1555 181.064 52.5136L186.607 73.9554L191.275 61.1512L190.444 57.9394L189.783 55.3733C189.49 54.4076 189.17 53.5166 188.808 52.7004C188.627 52.2949 188.403 51.9108 188.147 51.548C187.8 51.0625 187.454 50.657 187.108 50.3263C186.846 50.0808 186.425 49.7927 185.86 49.462V48.5763L196.818 54.9144V55.8001L196.072 55.3679C195.294 54.9251 194.729 54.7864 194.372 54.9571C194.009 55.1332 193.828 55.5493 193.828 56.2055C193.828 57.0218 194.137 58.6223 194.761 61.0071L200.16 81.7874L205.511 66.9825C206.118 65.3552 206.422 64.1548 206.422 63.3919C206.422 63.0238 206.321 62.6237 206.118 62.1915C205.921 61.7541 205.671 61.3859 205.367 61.0818C204.834 60.5537 204.157 60.0468 203.31 59.556V58.6704L211.72 63.5306L211.725 63.52ZM228.113 146.427C226.696 164.631 220.897 183.907 212.007 202.035L265.202 232.749C274.22 214.082 279.661 194.225 279.661 176.347V176.187L228.113 146.433V146.427ZM146.533 261.17C152.529 257.702 158.349 253.471 163.919 248.632L111.252 218.211C103.796 225.227 95.8651 231.277 87.6469 236.025L78.1229 241.531L129.33 271.12L146.533 261.175V261.17Z" fill="url(#paint3_linear_0_3840)"/>
<path d="M362.422 248.606C362.422 250.804 360.882 251.689 358.979 250.59L319.594 227.825C317.691 226.726 316.151 224.053 316.156 221.861V157.124C316.156 154.932 317.696 154.041 319.594 155.14L358.979 177.91C360.882 179.004 362.422 181.671 362.417 183.869V248.6L362.422 248.606Z" fill="white"/>
<path d="M360.522 251.726C359.936 251.726 359.296 251.539 358.651 251.166L319.266 228.401C317.15 227.179 315.492 224.304 315.492 221.86V157.129C315.492 155.822 315.966 154.83 316.83 154.329C317.693 153.832 318.797 153.918 319.926 154.569L359.312 177.339C361.433 178.561 363.085 181.431 363.08 183.874V248.605C363.08 249.912 362.606 250.91 361.742 251.406C361.369 251.62 360.959 251.726 360.517 251.726H360.522ZM318.056 155.337C317.843 155.337 317.651 155.385 317.491 155.476C317.059 155.726 316.814 156.324 316.814 157.129V221.86C316.814 223.808 318.242 226.278 319.926 227.249L359.312 250.014C360.01 250.414 360.655 250.504 361.087 250.254C361.518 250.003 361.764 249.4 361.764 248.6V183.869C361.764 181.922 360.341 179.457 358.651 178.486L319.266 155.716C318.828 155.465 318.413 155.337 318.061 155.337H318.056Z" fill="#CCCCCC"/>
<path d="M355.723 232.381C355.723 232.909 355.35 233.122 354.897 232.855L323.687 214.817C323.229 214.556 322.861 213.916 322.855 213.388C322.855 212.865 323.229 212.651 323.687 212.918L354.897 230.956C355.355 231.223 355.718 231.858 355.723 232.386V232.381ZM349.978 236.691C349.978 237.219 349.61 237.433 349.152 237.171L323.682 222.447C323.223 222.185 322.855 221.545 322.855 221.017C322.855 220.494 323.223 220.281 323.682 220.542L349.157 235.267C349.615 235.528 349.978 236.174 349.978 236.697V236.691ZM344.243 229.564C344.243 229.041 343.875 228.401 343.422 228.139L323.687 216.727C323.229 216.466 322.861 216.679 322.861 217.202C322.861 217.73 323.229 218.371 323.687 218.632L343.422 230.044C343.875 230.305 344.248 230.092 344.243 229.564ZM355.718 219.037C355.718 219.566 355.35 219.774 354.892 219.512L323.676 201.474C323.223 201.208 322.855 200.573 322.855 200.044C322.855 199.516 323.223 199.303 323.682 199.564L354.892 217.602C355.35 217.869 355.712 218.509 355.718 219.037ZM349.983 223.348C349.983 223.876 349.615 224.09 349.162 223.823L323.682 209.098C323.229 208.837 322.861 208.197 322.861 207.668C322.861 207.14 323.229 206.927 323.687 207.194L349.157 221.918C349.615 222.18 349.983 222.825 349.983 223.348ZM344.243 216.221C344.243 215.692 343.875 215.047 343.422 214.791L323.687 203.379C323.229 203.117 322.861 203.336 322.861 203.854C322.861 204.387 323.229 205.022 323.687 205.289L343.422 216.69C343.875 216.957 344.243 216.743 344.243 216.215V216.221ZM339.287 176.655C333.499 173.321 328.814 176.021 328.809 182.695C328.809 189.374 333.499 197.505 339.292 200.85C345.074 204.195 349.765 201.485 349.765 194.805L339.292 188.755V176.655H339.287Z" fill="url(#paint4_linear_0_3840)"/>
<path d="M341.578 175.338V187.433L352.051 193.488C352.051 186.808 347.361 178.683 341.578 175.338Z" fill="#F1F1F1"/>
<defs>
<linearGradient id="paint0_linear_0_3840" x1="332.418" y1="111.123" x2="242.221" y2="283.745" gradientUnits="userSpaceOnUse">
<stop stop-color="#F2F2F2"/>
<stop offset="1" stop-color="#E6E6E6"/>
</linearGradient>
<linearGradient id="paint1_linear_0_3840" x1="328.061" y1="108.854" x2="194.541" y2="142.569" gradientUnits="userSpaceOnUse">
<stop stop-color="#EAEAEA"/>
<stop offset="1" stop-color="#CFCFCF"/>
</linearGradient>
<linearGradient id="paint2_linear_0_3840" x1="304.401" y1="238.867" x2="132.018" y2="334.319" gradientUnits="userSpaceOnUse">
<stop stop-color="#EAEAEA"/>
<stop offset="1" stop-color="#CFCFCF"/>
</linearGradient>
<linearGradient id="paint3_linear_0_3840" x1="257.387" y1="66.9589" x2="124.597" y2="319.266" gradientUnits="userSpaceOnUse">
<stop stop-color="#F2E3FF"/>
<stop offset="1" stop-color="#CE86FF"/>
</linearGradient>
<linearGradient id="paint4_linear_0_3840" x1="359.498" y1="172.499" x2="331.316" y2="232.411" gradientUnits="userSpaceOnUse">
<stop stop-color="#F2E3FF"/>
<stop offset="1" stop-color="#CE86FF"/>
</linearGradient>
</defs>
</svg>
