<svg width="64" height="64" viewBox="0 0 64 64" fill="none" xmlns="http://www.w3.org/2000/svg">
<rect width="64" height="64" rx="5" fill="#B75FFF" fill-opacity="0.15"/>
<path d="M25.3333 44.6667C22.0195 44.6667 19.3333 41.9804 19.3333 38.6667C19.3333 35.353 22.0195 32.6667 25.3333 32.6667C28.647 32.6667 31.3333 35.353 31.3333 38.6667C31.3333 41.9804 28.647 44.6667 25.3333 44.6667ZM38.6666 31.3334C35.3529 31.3334 32.6666 28.6471 32.6666 25.3334C32.6666 22.0197 35.3529 19.3334 38.6666 19.3334C41.9803 19.3334 44.6666 22.0197 44.6666 25.3334C44.6666 28.6471 41.9803 31.3334 38.6666 31.3334ZM19.9999 26.6667C19.9999 22.9848 22.9847 20 26.6666 20H30.6666V22.6667H26.6666C24.4575 22.6667 22.6666 24.4576 22.6666 26.6667V30.6667H19.9999V26.6667ZM41.3333 33.3334V37.3334C41.3333 39.5426 39.5425 41.3334 37.3333 41.3334H33.3333V44H37.3333C41.0151 44 43.9999 41.0152 43.9999 37.3334V33.3334H41.3333Z" fill="#B75FFF"/>
</svg>
