<svg width="64" height="64" viewBox="0 0 64 64" fill="none" xmlns="http://www.w3.org/2000/svg">
<rect width="64" height="64" rx="5" fill="#B75FFF" fill-opacity="0.15"/>
<g clip-path="url(#clip0_1281_1768)">
<path d="M48 32C48 23.2119 40.7881 16 32 16C29.388 16 26.8363 16.7315 24.5461 17.9464C22.7093 16.267 19.8556 16.3013 18.0785 18.0785C16.3023 19.8556 16.2681 22.7094 17.9466 24.5461C16.7316 26.8362 16 29.388 16 32C16 40.7881 23.2119 48 32 48C34.612 48 37.1637 47.2683 39.4539 46.0534C41.3676 47.8035 44.1987 47.6442 45.9215 45.9215C47.6978 44.1444 47.7319 41.2909 46.0534 39.454C47.2684 37.1638 48 34.612 48 32ZM17.875 32C17.875 29.7834 18.4879 27.6182 19.4812 25.6585C21.372 26.5028 23.4027 26.013 24.7078 24.7078C26.1196 23.2961 26.428 21.2043 25.6585 19.4812C27.6182 18.4879 29.7834 17.875 32 17.875C39.7545 17.875 46.125 24.2455 46.125 32C46.125 34.2166 45.5121 36.3818 44.5188 38.3415C42.7961 37.5721 40.7045 37.8799 39.2922 39.2922C37.8804 40.7039 37.572 42.7957 38.3415 44.5188C36.3818 45.5121 34.2166 46.125 32 46.125C24.2455 46.125 17.875 39.7545 17.875 32Z" fill="#B75FFF"/>
<path d="M32 34.8125C33.5533 34.8125 34.8125 33.5533 34.8125 32C34.8125 30.4467 33.5533 29.1875 32 29.1875C30.4467 29.1875 29.1875 30.4467 29.1875 32C29.1875 33.5533 30.4467 34.8125 32 34.8125Z" fill="#B75FFF"/>
<path d="M32 23.5625C27.3473 23.5625 23.5625 27.3473 23.5625 32C23.5625 36.6527 27.3473 40.4375 32 40.4375C36.6527 40.4375 40.4375 36.6527 40.4375 32C40.4375 27.3473 36.6527 23.5625 32 23.5625ZM32 36.6875C29.4154 36.6875 27.3125 34.5846 27.3125 32C27.3125 29.4154 29.4154 27.3125 32 27.3125C34.5846 27.3125 36.6875 29.4154 36.6875 32C36.6875 34.5846 34.5846 36.6875 32 36.6875Z" fill="#B75FFF"/>
</g>
<defs>
<clipPath id="clip0_1281_1768">
<rect width="32" height="32" fill="white" transform="translate(16 16)"/>
</clipPath>
</defs>
</svg>
