<svg width="64" height="64" viewBox="0 0 64 64" fill="none" xmlns="http://www.w3.org/2000/svg">
<rect width="64" height="64" rx="5" fill="#B75FFF" fill-opacity="0.15"/>
<path d="M24.0002 23.8856L20.943 26.9428L19.0574 25.0571L25.3335 18.781L31.6097 25.0571L29.7241 26.9428L26.6669 23.8856L26.6668 30.6666H24.0002V23.8856ZM32.6669 25.3333C32.6669 28.647 35.3531 31.3332 38.6669 31.3332C41.9806 31.3332 44.6669 28.647 44.6669 25.3333C44.6669 22.0196 41.9806 19.3333 38.6669 19.3333C35.3531 19.3333 32.6669 22.0196 32.6669 25.3333ZM44.943 38.9427L43.0574 37.0571L40.0002 40.1143V33.3332H37.3335V40.1143L34.2763 37.0571L32.3907 38.9427L38.6669 45.2188L44.943 38.9427ZM30.6669 34.6666C30.6669 33.9302 30.0699 33.3332 29.3335 33.3332H21.3335C20.5971 33.3332 20.0002 33.9302 20.0002 34.6666V42.6666C20.0002 43.403 20.5971 43.9999 21.3335 43.9999H29.3335C30.0699 43.9999 30.6669 43.403 30.6669 42.6666V34.6666Z" fill="#B75FFF"/>
</svg>
