<svg width="64" height="64" viewBox="0 0 64 64" fill="none" xmlns="http://www.w3.org/2000/svg">
<rect width="64" height="64" rx="5" fill="#B75FFF" fill-opacity="0.15"/>
<path d="M25.4734 27.7199C25.9357 29.418 27.4887 30.6667 29.3333 30.6667H34.6667C37.9604 30.6667 40.6963 33.0553 41.2365 36.1948C42.8404 36.7156 44 38.2224 44 40C44 42.2092 42.2092 44 40 44C37.7908 44 36 42.2092 36 40C36 38.3112 37.0465 36.8668 38.5265 36.2801C38.0643 34.582 36.5113 33.3333 34.6667 33.3333H29.3333C27.8325 33.3333 26.4475 32.8375 25.3333 32.0005V36.2276C26.8869 36.7767 28 38.2584 28 40C28 42.2092 26.2091 44 24 44C21.7909 44 20 42.2092 20 40C20 38.2584 21.1131 36.7767 22.6667 36.2276V27.7724C21.1131 27.2233 20 25.7416 20 24C20 21.7909 21.7909 20 24 20C26.2091 20 28 21.7909 28 24C28 25.6888 26.9534 27.1332 25.4734 27.7199ZM24 25.3333C24.7364 25.3333 25.3333 24.7364 25.3333 24C25.3333 23.2636 24.7364 22.6667 24 22.6667C23.2636 22.6667 22.6667 23.2636 22.6667 24C22.6667 24.7364 23.2636 25.3333 24 25.3333ZM24 41.3333C24.7364 41.3333 25.3333 40.7364 25.3333 40C25.3333 39.2636 24.7364 38.6667 24 38.6667C23.2636 38.6667 22.6667 39.2636 22.6667 40C22.6667 40.7364 23.2636 41.3333 24 41.3333ZM40 41.3333C40.7364 41.3333 41.3333 40.7364 41.3333 40C41.3333 39.2636 40.7364 38.6667 40 38.6667C39.2636 38.6667 38.6667 39.2636 38.6667 40C38.6667 40.7364 39.2636 41.3333 40 41.3333Z" fill="#B75FFF"/>
</svg>
