<svg width="64" height="64" viewBox="0 0 64 64" fill="none" xmlns="http://www.w3.org/2000/svg">
<rect width="64" height="64" rx="5" fill="#B75FFF" fill-opacity="0.15"/>
<g clip-path="url(#clip0_1281_1782)">
<path d="M26.4609 36.2133L21.1302 41.544C20.6322 41.2644 20.0586 41.1042 19.4479 41.1042C17.5467 41.1041 16 42.6508 16 44.552C16 46.4532 17.5467 47.9999 19.4479 47.9999C21.3491 47.9999 22.8958 46.4532 22.8958 44.552C22.8958 43.9414 22.7356 43.3678 22.456 42.8698L27.7867 37.539C27.2877 37.1585 26.8415 36.7123 26.4609 36.2133Z" fill="#B75FFF"/>
<path d="M37.5392 27.7867L42.8699 22.4559C43.3679 22.7356 43.9416 22.8958 44.5522 22.8958C46.4534 22.8958 48.0001 21.3491 48.0001 19.4479C48.0001 17.5467 46.4534 16 44.5522 16C42.651 16 41.1043 17.5467 41.1043 19.4479C41.1043 20.0586 41.2646 20.6322 41.5441 21.1302L36.2134 26.4609C36.7124 26.8414 37.1587 27.2876 37.5392 27.7867Z" fill="#B75FFF"/>
<path d="M19.4479 35.4479C21.0241 35.4479 22.3557 34.3843 22.7652 32.9374H25.1008C25.0594 32.6307 25.0375 32.3179 25.0375 31.9999C25.0375 31.682 25.0594 31.3692 25.1008 31.0624H22.7652C22.3557 29.6156 21.0241 28.552 19.4479 28.552C17.5467 28.552 16 30.0988 16 31.9999C16 33.9011 17.5467 35.4479 19.4479 35.4479Z" fill="#B75FFF"/>
<path d="M44.5522 28.552C42.976 28.552 41.6445 29.6156 41.235 31.0624H38.8994C38.9409 31.3692 38.9627 31.682 38.9627 31.9999C38.9627 32.3179 38.9409 32.6307 38.8994 32.9374H41.235C41.6445 34.3843 42.976 35.4479 44.5522 35.4479C46.4534 35.4479 48.0002 33.9011 48.0002 31.9999C48.0002 30.0988 46.4534 28.552 44.5522 28.552Z" fill="#B75FFF"/>
<path d="M31.0627 22.7652V25.1008C31.3694 25.0594 31.6822 25.0375 32.0002 25.0375C32.3181 25.0375 32.6309 25.0594 32.9377 25.1008V22.7652C34.3846 22.3557 35.4481 21.0241 35.4481 19.4479C35.4481 17.5467 33.9014 16 32.0002 16C30.099 16 28.5522 17.5467 28.5522 19.4479C28.5522 21.0241 29.6158 22.3557 31.0627 22.7652Z" fill="#B75FFF"/>
<path d="M32.9377 41.2348V38.8992C32.6309 38.9406 32.3181 38.9625 32.0002 38.9625C31.6822 38.9625 31.3694 38.9406 31.0627 38.8992V41.2348C29.6158 41.6443 28.5522 42.9759 28.5522 44.552C28.5522 46.4532 30.099 48 32.0002 48C33.9014 48 35.4481 46.4532 35.4481 44.552C35.4481 42.9759 34.3846 41.6443 32.9377 41.2348Z" fill="#B75FFF"/>
<path d="M19.4479 22.8958C20.0586 22.8958 20.6322 22.7356 21.1302 22.456L26.4609 27.7867C26.8414 27.2877 27.2877 26.8414 27.7867 26.4609L22.456 21.1302C22.7356 20.6322 22.8958 20.0586 22.8958 19.4479C22.8958 17.5467 21.3491 16 19.4479 16C17.5467 16 16 17.5467 16 19.4479C16 21.3491 17.5467 22.8958 19.4479 22.8958Z" fill="#B75FFF"/>
<path d="M44.5522 41.1042C43.9416 41.1042 43.3679 41.2644 42.8699 41.544L37.5392 36.2133C37.1587 36.7123 36.7124 37.1586 36.2134 37.5391L41.5441 42.8698C41.2645 43.3678 41.1043 43.9414 41.1043 44.5521C41.1043 46.4533 42.651 48 44.5522 48C46.4534 48 48.0001 46.4533 48.0001 44.5521C48.0001 42.6509 46.4534 41.1042 44.5522 41.1042Z" fill="#B75FFF"/>
<path d="M32.0001 37.0875C34.8098 37.0875 37.0876 34.8097 37.0876 32C37.0876 29.1902 34.8098 26.9125 32.0001 26.9125C29.1903 26.9125 26.9126 29.1902 26.9126 32C26.9126 34.8097 29.1903 37.0875 32.0001 37.0875Z" fill="#B75FFF"/>
</g>
<defs>
<clipPath id="clip0_1281_1782">
<rect width="32" height="32" fill="white" transform="translate(16 16)"/>
</clipPath>
</defs>
</svg>
