<svg width="64" height="64" viewBox="0 0 64 64" fill="none" xmlns="http://www.w3.org/2000/svg">
<rect width="64" height="64" rx="5" fill="#B75FFF" fill-opacity="0.15"/>
<path d="M23.5615 21.6759L33.8854 31.9998L31.9998 33.8854L27.4049 29.2905C26.9357 30.0845 26.6665 31.0108 26.6665 31.9998C26.6665 34.9453 29.0543 37.3332 31.9998 37.3332C34.9453 37.3332 37.3332 34.9453 37.3332 31.9998C37.3332 29.1664 35.1237 26.8491 32.3336 26.6768L29.9277 24.2708C30.5886 24.0941 31.2832 23.9998 31.9998 23.9998C36.4181 23.9998 39.9998 27.5816 39.9998 31.9998C39.9998 36.4181 36.4181 39.9998 31.9998 39.9998C27.5816 39.9998 23.9998 36.4181 23.9998 31.9998C23.9998 30.2721 24.5476 28.6722 25.4788 27.3645L23.5734 25.459C22.1693 27.2652 21.3332 29.5349 21.3332 31.9998C21.3332 37.8909 26.1088 42.6665 31.9998 42.6665C37.8909 42.6665 42.6665 37.8909 42.6665 31.9998C42.6665 26.1088 37.8909 21.3332 31.9998 21.3332C30.5218 21.3332 29.1139 21.6338 27.8341 22.1773L25.8324 20.1756C27.6767 19.2116 29.7746 18.6665 31.9998 18.6665C39.3636 18.6665 45.3332 24.636 45.3332 31.9998C45.3332 39.3636 39.3636 45.3332 31.9998 45.3332C24.636 45.3332 18.6665 39.3636 18.6665 31.9998C18.6665 27.8377 20.5736 24.1211 23.5615 21.6759Z" fill="#B75FFF"/>
</svg>
